<?xml version="1.0" encoding="UTF-8"?>
<svg id="Calque_1" xmlns="http://www.w3.org/2000/svg" baseProfile="tiny" version="1.2" viewBox="0 0 703.01 761.66">
  <!-- Generator: Adobe Illustrator 29.5.1, SVG Export Plug-In . SVG Version: 2.1.0 Build 141)  -->
  <path d="M655.76,351.89c0,.08.02.16.03.24.49,4.08,6.38,4.17,7,.12l13.31-85.9c.5-3.2-3.23-5.34-5.73-3.28-26.61,21.94-18.84,53.45-14.61,88.83h0Z" fill="#fff"/>
  <path d="M587.55,247.04c-12.42,31.31,10.44,89.62,16.81,123.59,8.37,44.59,4.22,89.63,28.39,129.38h0c1.94,3.19,6.81,2.22,7.38-1.47l11.81-76.27c.82-5.31.67-10.72-.5-15.96-1.61-7.18-3.03-14.61-4.42-22.29-7.82-43.27-20.44-101.14,18.39-132.49,2.29-1.85,5.08-3.66,8.26-5.42,3.81-2.11,6.46-5.84,7.13-10.15l5.61-36.19c.76-4.93-3.61-9.13-8.51-8.17-5.58,1.09-10.59,2.16-14.82,3.18-26.35,6.37-64.94,25.6-75.53,52.26h0Z" fill="#fff"/>
  <path d="M518.73,219.29c-9.73,31.54,23.59,120.26,30.64,157.96,12.94,69.06-1.04,135.34,47.57,192.84,4.91,5.81,9.89,10.99,15.03,15.59,5.55,4.95,14.37,1.82,15.51-5.53l7.56-48.82c.66-4.29-.43-8.69-3.11-12.11-9.2-11.71-16.67-24.99-22.15-39.22-9.98-25.97-9.3-55.38-14.18-82.59-7.22-40.32-32.12-116.61-18.51-152.87,11.38-30.31,52.34-51.2,81.73-59.67,6.78-1.96,15.26-4.06,24.82-6.19,3.76-.84,6.63-3.89,7.22-7.7l3.66-23.6c.96-6.22-4.38-11.6-10.61-10.69-7.57,1.11-14.95,2.18-22.09,3.14-49.96,6.77-125.78,23.23-143.11,79.46h.02Z" fill="#fff"/>
  <path d="M694.23,84.35c-79.5,8.46-224.53,7.77-243.47,111.5-7.62,41.72,37.97,150.94,46.87,202.17,13.09,75.36-5.92,146.52,39.99,213.53,19.15,27.95,41,44.2,65.71,52.89,5.48,1.93,11.36-1.67,12.25-7.42l6.31-40.74c.81-5.21-1.36-10.48-5.68-13.49-11.38-7.94-21.62-18.08-31.14-30.83-44.79-60-33.05-113.29-45.55-181.53-8.05-43.9-43.38-137.4-30.71-175.83,18.03-54.7,83.1-76.81,133.98-85.48,14.81-2.52,32.16-5.46,50.36-8.32,3.36-.53,5.99-3.16,6.51-6.52l3.25-20.97c.79-5.08-3.46-9.52-8.57-8.97h-.11Z" fill="#fff"/>
  <path d="M520.63,598.63c-35.43-65.18-22.04-128.55-34.53-198.96-18.81-106.11-101.98-217.05,22.53-289.72,37.33-21.78,77.79-27.77,119.08-32.26,5.23-.57,5.4-8.12.2-8.93l-174.85-27.09c-11.46-1.78-22.19,6.08-23.96,17.53l-15.93,102.81c-1.43,9.21-6.29,17.64-13.86,23.09s-16.59,7.38-25.13,6.05c-6.68-1.03-13.05-4.06-18.19-8.95-4.31-4.11-7.82-8.9-10.44-14.14-2.61-5.24-4.32-10.94-4.99-16.84C331.98,76.51,274.42,13.7,196.39,1.91,105.45-11.85,18.95,50.05,2.72,140.58c-16.99,94.75,47.39,184.4,141.98,199.06,78.29,12.13,152.39-30.98,182.67-100.31,4.76-10.9,13.36-19.67,24.13-24.71,6.26-2.93,13.07-3.81,19.59-2.8,7.02,1.09,13.69,4.38,18.93,9.67,3.79,3.82,6.56,8.43,8.17,13.42,1.61,4.99,2.08,10.34,1.25,15.66l-68.84,444.4c-2.33,15.03,7.97,29.1,23,31.43l226.08,35.02c10.64,1.65,20.6-5.64,22.25-16.28l8.1-52.28c1.4-9.05-3.72-17.76-12.22-21.16-29.86-11.95-56.09-34.29-77.17-73.06h-.01Z" fill="#fff"/>
</svg>